<svg version="1.1" id="Layer_1" xmlns="http://www.w3.org/2000/svg" x="0" y="0" viewBox="0 0 198 202.6" style="enable-background:new 0 0 198 202.6" xml:space="preserve">
	<style>.st0{fill:#fff}</style>
	<path d="M197.9 27.4v-5.8l-2.3-1.2C193.9 19.6 154.7 0 100.2 0h-2.5C43.2 0 4 19.6 2.4 20.4L0 21.6v5.6C-.3 50.4 2.4 109.3 38.4 155 67.6 192.2 95 200.7 98 201.6l1.2.4 1.2-.2c1.2-.4 29.2-8.5 59.2-46.6 35.9-45.8 38.8-104.7 38.3-127.8z"/>
	<path class="st0" d="M99.3 195.8c-2.3-.6-28.2-8.6-56.3-44.3C6.1 104.6 6 43.3 6.3 28.8v-3.1c.1 0 .1-.1.1-.1v-.1l.8-.4c2-.8 6.4-2.8 12.7-5 25-9.1 51.4-13.8 78-13.8h2.5c26.6 0 52.8 4.7 77.7 13.7 6.4 2.3 10.8 4.2 12.7 5l.8.4v.1l.1.1v3.1c.4 14.5.2 75.8-36.7 122.8-28 35.7-53.6 43.7-55.7 44.3zm57.6-42.7c35.3-44.8 38-102.5 37.6-125.2v-4.2l-.7-.4c-1.6-.8-40.1-19.9-93.5-19.9h-2.6c-53.5.1-91.9 19.2-93.6 20l-.7.4v4C2.9 50.5 5.7 108.2 40.9 153c28.4 36.2 54.8 44.6 57.8 45.4l.4.1.4-.1c1.3-.3 28.1-8.2 57.4-45.3z"/>
	<path class="st0" d="M167.2 54.6c-13.1-13.6-14.5-15.7-14.5-21.4 0-5.5 2.4-6.2 4.8-6.2 1.5 0 3 .3 4.4.7 9.5 2.8 9.5 7.9 9.5 11.8V45c0 .4.2.8.6 1 2.4.7 3.5 1.2 5.9 2 .3.2.7.2 1-.1.3-.2.5-.5.5-.8v-4.6c0-5.8 0-15.5-16.9-20.4-11.9-3.4-18 .2-18 10.6 0 8.5 5.3 13.6 14 22.1l1.7 1.7c10.3 10.2 12.4 13.4 12.4 19.8 0 2.4-.4 4-1.1 4.9-.7 1.1-1.8 1.4-3.6 1.4s-3.5-.3-5.2-.8c-4.6-1.3-7.8-3.1-9.8-5.3-2.4-2.6-2.4-4.9-2.4-9.5v-4.8c0-.5-.2-1-.7-1-2.6-.6-3.8-.8-6.2-1.3-.3-.1-.6 0-.8.2-.2.2-.3.5-.4.8v8.6c0 8 6.7 14.3 19.2 17.9 3 1 6.1 1.5 9.2 1.6 9.7 0 9.7-8 9.7-11.4 0-8.8-4.6-14-13.3-23zm-26.4-36.8c-12.5-2.3-25.2-3.5-37.9-3.6-.5-.1-1 .2-1.1.7v4.2c0 .6.5 1 1.1 1.1 5.9 0 9 .2 14.6.6v56.9c0 .6.4 1 1 1.1 2.5.2 3.7.2 6.2.6h.1c.3 0 .5-.1.6-.4.3-.1.4-.4.4-.7V21.6c5.6.6 8.9 1.1 14.8 2.2.3 0 .6-.1.8-.2.2-.2.4-.5.4-.8V19c-.2-.7-.5-1.1-1-1.2zm-44.3-3.5c-10.7.1-21.4 1.1-31.9 2.9-.5 0-1 .4-1 .9v61.7c0 .3.2.5.4.7.2.1.5.2.7.2h.1c10.4-1.7 21-2.6 31.6-2.8.6-.1 1-.5 1-1.1V73c0-.3-.1-.5-.4-.7-.1-.3-.4-.4-.7-.4-8.2.1-16.4.7-24.5 1.8V49.4c6.6-.9 13.3-1.5 20-1.7.5 0 .9-.3 1-.8V43c0-.3-.1-.5-.2-.7-.2-.2-.5-.3-.7-.2-6.7.1-13.4.7-20 1.6V22c8.2-1.1 16.4-1.8 24.6-1.8.5.1 1-.3 1.1-.9v-3.9c0-.3-.1-.6-.4-.7-.2-.3-.4-.4-.7-.4zm-40.9 4.4c-2.4.5-3.6.7-6 1.3-.5 0-.9.5-.8 1l.5 44.8c0 3 .1 5.8.2 8.3-6-15.6-12.4-31.7-18.8-47.9-.2-.5-.7-.7-1.2-.6-3.6 1.2-5.4 1.8-8.9 3.2-.4.1-.7.5-.7 1v61.7c0 .3.2.6.5.7.1.2.4.2.6.2.1 0 .3 0 .4-.1 2.2-.8 3.4-1.2 5.5-2 .4-.1.8-.5.7-1-.1-14.5-.1-29.2-.2-43.7 0-3.8 0-6-.1-8.8 6.1 16.2 12.3 32 18.2 47 .1.5.6.8 1.1.6h.1c3.7-.8 5.6-1.3 9.4-2 .5-.1.8-.5.8-1V19.7c0-.3-.1-.6-.4-.8-.2-.2-.6-.3-.9-.2zM133.6 158.3c-.6.5-1.2.8-1.9 1.3-1.7 1.2-3.5 2.2-5.2 3.2-.8.6-1.7 1.1-2.5 1.6-6.1 3.8-13.6 8-21.4 10.4-2.1.6-4.3 1.2-6.5 1.6-1.8.3-3.7.5-5.5.5h-.4c-2.3 0-4.5-.2-6.7-.6 8.5 3 17.7 3.4 26.5 1.3 5.1-1.3 9.9-3.4 14.3-6.2 4.3-3.5 7.6-8 9.5-13.2-.1 0-.2 0-.2.1zm-41.8 16.3c5-.6 9.9-2.1 14.4-4.4.8-.3 1.5-.7 2.2-1.2.6-.2 1.2-.6 1.8-.8 4.2-2.2 8.6-4.6 14-7.6 2-1 3.8-2 5.8-3.1l2.2-1.2c.8-.5 1.7-.8 2.4-1.3.1-.1.1-.1.2-.1.7-2.7 1.2-5.5 1.4-8.3-5.4 2.6-13.4 5-25.2 7.4-15 3-29.8 1.7-43-4-8.9-3.7-13.1-8.9-14.8-11.6.2 2 .6 4 1.1 6 2.9 11 9.7 20.7 19.2 27v-.1l1.2.7c1.3.7 2.6 1.3 4 1.7 2.8.8 5.7 1.2 8.6 1.2l4.5-.3zm47.1-19.4c-.1-.1-.1-.1-.2-.1-.4 0-.8.2-1.1.4-.1.1-.2.2-.4.2-.1.1-.2.1-.4.2-1.1 3-2.6 5.9-4.4 8.5 2.6-2.7 4.8-5.6 6.6-8.9h-.1v-.3zm1.8-11.4c-.2.2-.4.2-.5.5-.3.1-.5.3-.7.5-.3 2.9-.8 5.7-1.7 8.5 1.4-.5 2 .1 2.2.5 0 .1 0 .1.1.1 2.4-4.7 4-9.8 4.6-15-.9 1.9-2.3 3.6-4 4.9zm-1.2-2.4c.1-.1.2-.1.4-.2 2.5-1.9 4.2-4.6 5-7.7 0-3.7-.5-7.4-1.4-11 0-.2-.1-.4-.2-.5-.4 3.6-2.2 6.9-4.9 9.4.7 3.2 1.1 6.6 1.1 10zm-68.8 5.5c10.9 3.6 16.9 4.7 24.8 4.7 2.9 0 6.2-.1 10.3-.5 11.6-1 23.9-4.8 30.5-8 0-3.2-.3-6.4-1-9.6-2.1 1.2-4.4 1.8-6.8 1.7-2.8 0-6-.5-11.4-1.8-6.4-1.6-15.4-7-23.4-11.6-4.3-2.6-8.5-5-11.9-6.7-13.1-6.5-20.5-5.5-22.4-5.2-4.7 7.9-7 17.1-6.4 26.3 1 1.1 5.5 6.6 17.7 10.7zm6.7-37.3c5.6 2.5 11 5.2 16.3 8.3 9.7 5.2 19.7 10.6 26.5 12.2 6 1.6 10.9 1.3 14.4-.4v-.2c-.1-.2-.1-.5-.2-.7-2.9-12.4-18.4-39.5-45.2-39.5-1.1 0-2.2.1-3.4.1-10 2.8-18.8 9.1-24.7 17.6 1.3-.4 2.6-.6 4-.6 3.4.2 7.5 1.2 12.3 3.2zm60 18.2c.6-.7 1.1-1.5 1.6-2.4 3.2-6.2.5-13.2-.8-15.6C129 94.8 112 86.3 94.5 88c18.3.9 36.1 17.4 42.9 39.8z"/><path class="st0" d="M117 142.6c0-3.4 0-8.3-4-12.1.5-.7.8-1.5 1.1-2.4.6-1.8.8-3.7.7-5.6V113c-.1-3.5-.6-7.1-3.5-10.2-2.5-2.9-6.4-4.4-10.9-4.4H88c-1.4 0-2.7.6-3.7 1.6-.9 1-1.5 2.3-1.4 3.6l.1 60.5c0 1.8.9 3.5 2.5 4.4.8.5 1.8.8 2.8.8H101c4.2.1 8.2-1.3 11.4-4h.1c4.2-3.7 4.6-8.2 4.7-12.4v-.1l-.2-10.2z"/>
	<path d="M100.2 127.7c-1 .4-1.6.4-3.8.5H94c-.4 0-.5-.1-.5-.5v-19.4c0-.2.2-.5.4-.5h3.9c1.7-.1 3.4.2 4.9.8.5.3.9.8 1.1 1.4.3 1.1.5 2.1.5 3.2v8.2c-.1 1.8-.2 5.1-4.1 6.3zm4.5 31.3c-1 .7-2.2 1.1-5 1.2h-5.4c-.4 0-.6-.4-.6-.7v-24.1c0-.1 0-.4.4-.4h2.5c2.6.1 5.4.2 7.2 1.4 1 .6 1.8 1.6 2.2 2.8.3 1.3.5 2.5.5 3.8v8.9c0 4-.3 5.9-1.8 7.1zm9.1-16c0-3.5 0-7.6-3.5-10.4-.8-.7-1.7-1.2-2.6-1.6 1.6-1.1 2.8-2.7 3.4-4.6.4-1.5.6-3 .6-4.6v-9.6c-.1-2.6-.4-5.8-2.6-8.2-1.8-2-4.8-3.1-8.4-3.1H87.5c-.4 0-.8.2-1.1.5-.2.3-.4.7-.4 1.1v63c0 .5.3 1 .7 1.3.3.2.5.2.8.2h13.2c3.4.1 6.7-1 9.4-3.1 3.1-2.9 3.5-6.2 3.6-10.1l.1-10.8z"/>
</svg>